<?xml version="1.0" ?><!DOCTYPE svg  PUBLIC '-//W3C//DTD SVG 1.1//EN'  'http://www.w3.org/Graphics/SVG/1.1/DTD/svg11.dtd'><svg enable-background="new 0 0 40 40" height="40px" id="Layer_1" version="1.1" viewBox="0 0 40 40" width="40px" xml:space="preserve" xmlns="http://www.w3.org/2000/svg" xmlns:xlink="http://www.w3.org/1999/xlink"><g><g><path d="M20,2c9.925,0,18,8.075,18,18s-8.074,18-18,18S2,29.925,2,20S10.075,2,20,2 M20,0C8.954,0,0,8.954,0,20    c0,11.047,8.954,20,20,20c11.044,0,20-8.953,20-20C40,8.954,31.045,0,20,0L20,0z" fill="hsl(240, 75%, 98%)"/></g><path clip-rule="evenodd" d="M12.537,10.641h14.926c1.416,0,2.576,1.159,2.576,2.577v14.925   c0,1.418-1.16,2.577-2.576,2.577H12.537c-1.417,0-2.577-1.159-2.577-2.577V13.218C9.96,11.8,11.12,10.641,12.537,10.641   L12.537,10.641z M24.588,12.872c-0.498,0-0.904,0.407-0.904,0.904v2.164c0,0.497,0.406,0.903,0.904,0.903h2.27   c0.496,0,0.902-0.406,0.902-0.903v-2.164c0-0.497-0.406-0.904-0.902-0.904H24.588L24.588,12.872z M27.77,19.132h-1.768   c0.168,0.546,0.258,1.124,0.258,1.724c0,3.34-2.795,6.047-6.24,6.047c-3.447,0-6.243-2.707-6.243-6.047   c0-0.6,0.091-1.178,0.258-1.724h-1.844v8.482c0,0.439,0.358,0.799,0.798,0.799h13.983c0.438,0,0.797-0.359,0.797-0.799V19.132   L27.77,19.132z M20.02,16.73c-2.229,0-4.034,1.749-4.034,3.907c0,2.159,1.805,3.909,4.034,3.909c2.226,0,4.031-1.75,4.031-3.909   C24.051,18.479,22.246,16.73,20.02,16.73z" fill="hsl(240, 75%, 98%)" fill-rule="evenodd"/></g></svg>